<svg viewBox="0 0 47 54" xmlns="http://www.w3.org/2000/svg" fill-rule="evenodd" clip-rule="evenodd" stroke-linejoin="round" stroke-miterlimit="2"><path d="M18.339 46.432C7.843 44.08 0 34.706 0 23.5 0 10.521 10.521 0 23.5 0S47 10.521 47 23.5c0 11.944-8.911 21.807-20.448 23.304-.586.432-1.148.942-1.592 1.529-1.342 1.775-1.621 3.227-1.957 5.129-.049.28-.488.276-.544-.003-.309-1.509-.918-3.772-1.979-5.126-.533-.68-1.35-1.346-2.141-1.901z" fill="#f33" fill-rule="nonzero"/><path d="M25 18h7v3h-7v15h-3V21h-7v-3h7v-7h3v7z" fill="#fff" fill-rule="nonzero"/></svg>